<svg xmlns="http://www.w3.org/2000/svg" width="528.847" height="502.692" viewBox="0 0 528.847 502.692"><g transform="translate(-702.153 -145.308)"><circle cx="250" cy="250" r="250" transform="translate(731 148)" fill="none"/><path d="M65.719,212.363c-23,0-41.636,17.96-41.636,40.114S42.721,292.59,65.712,292.59s41.629-17.96,41.629-40.114-18.635-40.111-41.624-40.114ZM362.935,394.67c-19.9,11.071-26.726,35.594-15.237,54.774s36.939,25.753,56.844,14.681,26.725-35.595,15.236-54.774S382.838,383.593,362.935,394.67Zm-206.8-142.187c-.026-38.168,19.269-73.949,51.7-95.867L177.4,107.5c-36.976,23.782-63.59,59.831-74.779,101.29a55.054,55.054,0,0,1,0,87.374c11.174,41.469,37.791,77.527,74.779,101.3l30.433-49.129c-32.43-21.91-51.726-57.689-51.7-95.854ZM277.727,135.31c62.96,0,115.514,46.327,121.1,106.768l59.317-.831c-2.829-42.77-21.965-83.022-53.73-113.019a60.4,60.4,0,0,1-49.944-3.912,56.356,56.356,0,0,1-28.437-39.755,187.157,187.157,0,0,0-128.454,11.7l28.925,49.945a124.961,124.961,0,0,1,51.222-10.9Zm0,234.335a124.976,124.976,0,0,1-51.217-10.9l-28.925,49.944a186.915,186.915,0,0,0,128.454,11.7,56.356,56.356,0,0,1,28.438-39.755,60.4,60.4,0,0,1,49.944-3.912c31.765-30,50.9-70.249,53.73-113.019l-59.331-.843c-5.567,60.445-58.118,106.785-121.094,106.781ZM362.92,110.272c19.907,11.078,45.364,4.505,56.857-14.679s4.668-43.713-15.243-54.784-45.366-4.49-56.851,14.7S343.013,99.208,362.92,110.272Z" transform="translate(751.813 106.542) rotate(9)" fill="#fff"/></g></svg>