<svg xmlns="http://www.w3.org/2000/svg" xmlns:xlink="http://www.w3.org/1999/xlink" width="518" height="518" viewBox="0 0 518 518"><defs><filter id="a" x="0" y="0" width="518" height="518" filterUnits="userSpaceOnUse"><feOffset dy="3" input="SourceAlpha"/><feGaussianBlur stdDeviation="3" result="b"/><feFlood flood-color="#8e8e8e" flood-opacity="0.161"/><feComposite operator="in" in2="b"/><feComposite in="SourceGraphic"/></filter></defs><g transform="translate(-722 -142)"><g transform="matrix(1, 0, 0, 1, 722, 142)" filter="url(#a)"><circle cx="250" cy="250" r="250" transform="translate(9 6)" fill="#ebebeb"/></g><path d="M60.341,189.509c-20.027,0-36.258,15.64-36.258,34.932s16.231,34.932,36.252,34.932,36.252-15.64,36.252-34.932S80.36,189.511,60.34,189.509ZM319.166,348.268c-17.333,9.641-23.274,31-13.269,47.7s32.168,22.426,49.5,12.785,23.273-31,13.268-47.7S336.5,338.622,319.166,348.268ZM139.081,224.447c-.023-33.238,16.78-64.4,45.019-83.484L157.6,98.191c-32.2,20.71-55.376,52.1-65.12,88.206a47.943,47.943,0,0,1,0,76.088C102.21,298.6,125.388,330,157.6,350.7l26.5-42.783c-28.241-19.08-45.044-50.237-45.019-83.472ZM244.965,122.409c54.828,0,100.593,40.343,105.462,92.977l51.655-.723a148.936,148.936,0,0,0-46.79-98.42,52.594,52.594,0,0,1-43.492-3.407,49.077,49.077,0,0,1-24.764-34.62A162.982,162.982,0,0,0,175.173,88.406L200.362,131.9a108.819,108.819,0,0,1,44.605-9.491Zm0,204.066a108.832,108.832,0,0,1-44.6-9.491l-25.189,43.493a162.771,162.771,0,0,0,111.862,10.191,49.077,49.077,0,0,1,24.764-34.62,52.594,52.594,0,0,1,43.492-3.407,148.936,148.936,0,0,0,46.79-98.42l-51.667-.734c-4.848,52.637-50.611,92.992-105.452,92.988Zm74.189-225.87c17.336,9.647,39.5,3.923,49.513-12.783s4.065-38.067-13.274-47.708-39.506-3.91-49.508,12.8S301.817,90.97,319.153,100.605Z" transform="translate(774.889 143.234) rotate(9)" fill="#f428fc"/></g></svg>